<?xml version="1.0" encoding="utf-8"?>
<!-- Generator: Adobe Illustrator 23.0.2, SVG Export Plug-In . SVG Version: 6.00 Build 0)  -->
<svg version="1.1" id="Layer_1" xmlns="http://www.w3.org/2000/svg" xmlns:xlink="http://www.w3.org/1999/xlink" x="0px" y="0px"
	 viewBox="0 0 50 50" style="enable-background:new 0 0 50 50;" xml:space="preserve">
<style type="text/css">
	.st0{fill:#70C8BD;}
</style>
<path class="st0" d="M25.02,0c2.82,0,4.22,0.35,4.22,1.05c0.28,4.09,1.84,6.14,4.68,6.14h0.84c1.42,0,2.97-0.84,4.64-2.51
	c2.47,1.7,4.45,3.68,5.93,5.93c-1.67,1.67-2.51,3.15-2.51,4.43v1.5c0,2.28,1.9,3.69,5.69,4.22c0.86,0,1.29,0.21,1.29,0.63
	c0,0.58,0.07,1.86,0.21,3.84c0,2.67-0.35,4.01-1.05,4.01c-4.09,0.37-6.14,1.85-6.14,4.43v0.66c0,1.86,0.84,3.55,2.51,5.06
	c-1.58,2.37-3.56,4.35-5.93,5.93h-0.42c-1.14-1.67-2.55-2.51-4.22-2.51h-0.84c-2.42,0-3.98,1.69-4.68,5.06v1.29
	c0,0.56-1.49,0.84-4.47,0.84c-2.67,0-4.01-0.28-4.01-0.84c0-3.42-1.34-5.54-4.01-6.35h-1.5c-1.47,0-3.01,0.84-4.64,2.51
	c-3.96-3.07-5.93-5.12-5.93-6.14c1.67-1.37,2.51-2.85,2.51-4.43v-0.84c0-2.42-1.76-3.98-5.27-4.68H0.63c-0.42,0-0.63-1.27-0.63-3.8
	v-0.21c0-2.98,0.28-4.47,0.84-4.47c3.09,0,5.14-1.13,6.14-3.38l0.21-1.29v-0.42c0-1.77-0.84-3.45-2.51-5.06
	c2.12-3.09,4.16-5.07,6.14-5.93c1.19,1.67,2.8,2.51,4.85,2.51h0.42c3.12-0.65,4.68-2.63,4.68-5.93V0.42C22.13,0.14,23.55,0,25.02,0z
	 M11.65,24.77c0.19,1.28,0.82,1.92,1.92,1.92h0.21c0.84-0.35,1.26-0.92,1.26-1.71c-0.21-1.12-0.85-1.67-1.92-1.67
	C12.68,23.31,12.19,23.8,11.65,24.77z M16.96,20.55v8.27c0,2.81,1.55,4.22,4.64,4.22h7.01c2.96,0,4.43-1.2,4.43-3.59l-0.21-0.42
	c0-0.14,0.07-0.21,0.21-0.21l-0.21-1.08v-7.82c0-1.98-1.69-2.97-5.09-2.97h-5.48C18.72,16.96,16.96,18.16,16.96,20.55z M23.31,13.57
	c0,0.88,0.57,1.37,1.71,1.47h0.42c0.61-0.35,1.03-0.84,1.26-1.47c-0.25-1.28-0.81-1.92-1.67-1.92
	C24.09,11.65,23.52,12.29,23.31,13.57z M23.31,36.64v0.45c0.61,0.84,1.17,1.26,1.71,1.26c1.12-0.37,1.67-1.01,1.67-1.92
	c-0.28-0.77-0.7-1.26-1.26-1.47h-0.42C23.88,34.96,23.31,35.52,23.31,36.64z M36.01,23.31c-0.7,0.54-1.05,1.09-1.05,1.67
	c0,1.14,0.56,1.71,1.67,1.71c0.89,0,1.39-0.57,1.5-1.71v-0.63C37.81,23.66,37.1,23.31,36.01,23.31z"/>
</svg>
