<?xml version="1.0" encoding="utf-8"?>
<!-- Generator: Adobe Illustrator 23.0.2, SVG Export Plug-In . SVG Version: 6.00 Build 0)  -->
<svg version="1.1" id="Layer_1" xmlns="http://www.w3.org/2000/svg" xmlns:xlink="http://www.w3.org/1999/xlink" x="0px" y="0px"
	 viewBox="0 0 50 50" style="enable-background:new 0 0 50 50;" xml:space="preserve">
<style type="text/css">
	.st0{fill:#70c9be;}
</style>
<circle class="st0" cx="25" cy="25" r="25"/>
<g>
	<path d="M46.65,12.45c-2.24-3.83-5.27-6.86-9.1-9.1C33.72,1.12,29.54,0,25,0s-8.72,1.12-12.55,3.35c-3.83,2.24-6.86,5.27-9.1,9.1
		C1.12,16.28,0,20.47,0,25c0,5.45,1.59,10.35,4.77,14.7s7.29,7.36,12.32,9.03c0.59,0.11,1.02,0.03,1.3-0.23
		c0.28-0.26,0.42-0.59,0.42-0.98c0-0.07-0.01-0.65-0.02-1.76c-0.01-1.11-0.02-2.07-0.02-2.9l-0.75,0.13
		c-0.48,0.09-1.08,0.12-1.81,0.11s-1.48-0.09-2.26-0.23c-0.78-0.14-1.51-0.47-2.18-0.98s-1.15-1.18-1.43-2l-0.33-0.75
		c-0.22-0.5-0.56-1.05-1.03-1.66c-0.47-0.61-0.94-1.02-1.42-1.24l-0.23-0.16c-0.15-0.11-0.29-0.24-0.42-0.39
		c-0.13-0.15-0.23-0.3-0.29-0.46c-0.04-0.13,0.01-0.25,0.18-0.35c0.17-0.1,0.49-0.15,0.94-0.15l0.65,0.1
		c0.43,0.09,0.97,0.35,1.61,0.78c0.64,0.43,1.17,1,1.58,1.69c0.5,0.89,1.1,1.57,1.81,2.03c0.71,0.47,1.42,0.7,2.13,0.7
		c0.72,0,1.33-0.05,1.86-0.16c0.52-0.11,1.01-0.27,1.46-0.49c0.2-1.45,0.73-2.57,1.59-3.35c-1.24-0.13-2.35-0.33-3.34-0.59
		s-2.01-0.68-3.06-1.27s-1.93-1.31-2.62-2.18c-0.69-0.87-1.26-2.01-1.71-3.42c-0.44-1.41-0.67-3.04-0.67-4.88
		c0-2.63,0.86-4.86,2.57-6.71c-0.8-1.97-0.73-4.19,0.23-6.64c0.63-0.2,1.56-0.05,2.8,0.44s2.14,0.91,2.72,1.25
		c0.58,0.35,1.04,0.64,1.38,0.88c2.02-0.56,4.1-0.85,6.25-0.85s4.23,0.28,6.25,0.85l1.24-0.78c0.85-0.52,1.84-1,2.99-1.43
		s2.03-0.55,2.64-0.36c0.98,2.45,1.06,4.67,0.26,6.64c1.71,1.84,2.57,4.08,2.57,6.71c0,1.84-0.22,3.48-0.67,4.9
		c-0.44,1.42-1.02,2.56-1.72,3.42c-0.71,0.86-1.58,1.58-2.64,2.16c-1.05,0.59-2.07,1.01-3.06,1.27c-0.99,0.26-2.1,0.46-3.34,0.59
		c1.13,0.98,1.69,2.52,1.69,4.62v6.87c0,0.39,0.14,0.72,0.41,0.98s0.7,0.34,1.29,0.23c5.04-1.67,9.14-4.68,12.32-9.03
		s4.77-9.25,4.77-14.7C50,20.47,48.88,16.28,46.65,12.45z"/>
</g>
</svg>
