<svg xmlns="http://www.w3.org/2000/svg" viewBox="0 0 545.15 162.96"><defs><style>.cls-1{fill:#70c9be;}</style></defs><title>hello_1</title><g id="Layer_2" data-name="Layer 2"><g id="Layer_1-2" data-name="Layer 1"><rect class="cls-1" x="21.17" y="48.63" width="523.98" height="114.32"/><path d="M124.77,8.16V144.21H93.29V88.43H31.49v55.78H0V8.16H31.49V61.8h61.8V8.16Z"/><path d="M246.83,100.48H167.72a24.64,24.64,0,0,0,10.11,15.35q8,5.64,19.82,5.64A40.1,40.1,0,0,0,212.13,119a35.1,35.1,0,0,0,11.76-7.68L240,128.85q-14.78,16.92-43.14,16.91-17.69,0-31.29-6.9a50.5,50.5,0,0,1-21-19.14,52.69,52.69,0,0,1-7.39-27.79,53.44,53.44,0,0,1,7.29-27.7,51.1,51.1,0,0,1,20-19.24,62,62,0,0,1,56.26-.29,48.26,48.26,0,0,1,19.53,18.95q7.09,12.34,7.1,28.67C247.41,92.71,247.21,95.43,246.83,100.48ZM175.89,66.86q-7,5.82-8.55,15.93h51.5A25.15,25.15,0,0,0,210.29,67,25.59,25.59,0,0,0,193.18,61Q182.89,61,175.89,66.86Z"/><path d="M257.71,0H288V144.21H257.71Z"/><path d="M306.3,0h30.32V144.21H306.3Z"/><path d="M375,138.86a51.26,51.26,0,0,1-20.51-19.14,52.77,52.77,0,0,1-7.38-27.79,52.75,52.75,0,0,1,7.38-27.79A51.29,51.29,0,0,1,375,45a66.9,66.9,0,0,1,59.18,0,51.38,51.38,0,0,1,20.4,19.15A52.66,52.66,0,0,1,462,91.93a52.69,52.69,0,0,1-7.39,27.79,51.36,51.36,0,0,1-20.4,19.14,66.9,66.9,0,0,1-59.18,0ZM423.78,113q7.49-7.86,7.48-21.08t-7.48-21.09Q416.3,63,404.64,63T385.4,70.84q-7.59,7.88-7.58,21.09T385.4,113q7.58,7.88,19.24,7.88T423.78,113Z"/><path d="M469,140.32a18.43,18.43,0,0,1-5.44-13.6q0-8.35,5.44-13.51a20,20,0,0,1,26.82,0q5.44,5.15,5.44,13.51a18.43,18.43,0,0,1-5.44,13.6,19.25,19.25,0,0,1-26.82,0Z"/></g></g></svg>