<svg xmlns="http://www.w3.org/2000/svg" viewBox="0 0 25.16 27.35"><defs><style>.cls-1{fill:#70c9be;}</style></defs><title>j-logo_2</title><g id="Layer_2" data-name="Layer 2"><g id="Layer_1-2" data-name="Layer 1"><path d="M15.55,11.54c0,1.13,0,2.26,0,3.39a.66.66,0,0,1-.38.67c-.74.41-1.48.84-2.2,1.27a.69.69,0,0,1-.78,0c-.72-.43-1.45-.83-2.17-1.26a.68.68,0,0,0-.77,0c-1,.58-2,1.14-3,1.72-.43.25-.43.48,0,.73l5.83,3.36a.86.86,0,0,0,1,0C15,20.24,17,19.1,19,18a1,1,0,0,0,.56-1q0-3.35,0-6.69a1,1,0,0,0-.59-1c-.92-.51-1.83-1-2.75-1.56-.47-.27-.63-.18-.63.38Z"/><path class="cls-1" d="M23.05,13.7v4.09a3.18,3.18,0,0,1-1.64,2.88c-2.31,1.36-4.64,2.68-7,4a3.47,3.47,0,0,1-3.72,0c-2.33-1.35-4.68-2.68-7-4.05a3.11,3.11,0,0,1-1.61-2.8q0-4.2,0-8.4A3.11,3.11,0,0,1,3.75,6.67c2.3-1.35,4.62-2.66,6.93-4a3.52,3.52,0,0,1,3.82,0c2.29,1.34,4.6,2.65,6.89,4a3.19,3.19,0,0,1,1.66,2.87C23.06,10.92,23.05,12.31,23.05,13.7Zm-7.5-2.16c0,1.13,0,2.26,0,3.39a.66.66,0,0,1-.38.67c-.74.41-1.48.84-2.2,1.27a.69.69,0,0,1-.78,0c-.72-.43-1.45-.83-2.17-1.26a.68.68,0,0,0-.77,0c-1,.58-2,1.14-3,1.72-.43.25-.43.48,0,.73l5.83,3.36a.86.86,0,0,0,1,0C15,20.24,17,19.1,19,18a1,1,0,0,0,.56-1q0-3.35,0-6.69a1,1,0,0,0-.59-1c-.92-.51-1.83-1-2.75-1.56-.47-.27-.63-.18-.63.38Z"/><path d="M12.58,2.61a3.24,3.24,0,0,1,1.67.5L17.57,5l3.57,2.07a2.67,2.67,0,0,1,1.4,2.44c0,1,0,1.94,0,2.91v5.35a2.66,2.66,0,0,1-1.4,2.45l-4.42,2.57L14.2,24.27a3.29,3.29,0,0,1-1.62.47,3.21,3.21,0,0,1-1.6-.46L8.66,22.94C7.1,22,5.54,21.15,4,20.23a2.59,2.59,0,0,1-1.37-2.37q0-4.2,0-8.4A2.61,2.61,0,0,1,4,7.1c1.28-.76,2.57-1.5,3.87-2.24L10.93,3.1a3.2,3.2,0,0,1,1.65-.49m0-2.61a5.76,5.76,0,0,0-3,.85L6.87,2.43l-.29.17L2.68,4.86A5.2,5.2,0,0,0,0,9.45c0,2.63,0,5.39,0,8.42a5.2,5.2,0,0,0,2.65,4.6c1.56.93,3.13,1.83,4.7,2.73l2.32,1.34a5.57,5.57,0,0,0,5.82,0L18,25.06c1.48-.85,3-1.71,4.44-2.58a5.23,5.23,0,0,0,2.68-4.68V12.44c0-1,0-2,0-2.93a5.28,5.28,0,0,0-2.7-4.67c-1.14-.67-2.29-1.33-3.44-2l-.15-.09c-1.1-.63-2.2-1.26-3.29-1.9a5.9,5.9,0,0,0-3-.86Z"/></g></g></svg>