<svg xmlns="http://www.w3.org/2000/svg" viewBox="0 0 20.65 21.18"><defs><style>.cls-1{fill:#70c9be;}</style></defs><title>j-logo_2</title><g id="Layer_2" data-name="Layer 2"><g id="Layer_1-2" data-name="Layer 1"><path class="cls-1" d="M14.63,0h5.52a.5.5,0,0,1,.5.5V13l0,.32,0,.31-.05.31-.06.3-.08.31-.09.3-.1.3-.11.29-.13.29-.14.28-.15.27-.26.42-.28.41-.31.38-.33.37-.35.35-.37.33-.38.3-.41.29-.42.26-.43.23-.45.21-.45.18-.49.17-.48.16-.49.14-.5.13-.49.12-.5.1-.51.09-.5.08-.51.06-.51.05-.51,0-.51,0H.5a.5.5,0,0,1-.39-.81L3.55,16a.51.51,0,0,1,.39-.19H9.76l.27,0,.26,0,.26,0,.25-.05.26-.07.25-.08.25-.08.24-.09.24-.11.24-.11.27-.15.25-.18.24-.2.22-.22.2-.23.17-.26.15-.27.12-.28L14,13l.07-.3,0-.3V.5A.5.5,0,0,1,14.63,0Z"/><path class="cls-1" d="M11.45,11.08,2,.84A.5.5,0,0,1,2.41,0H9.27a.51.51,0,0,1,.37.16l2.55,2.78a.48.48,0,0,1,.14.34v7.46A.51.51,0,0,1,11.45,11.08Z"/></g></g></svg>