<?xml version="1.0" encoding="utf-8"?>
<!-- Generator: Adobe Illustrator 23.0.2, SVG Export Plug-In . SVG Version: 6.00 Build 0)  -->
<svg version="1.1" id="Layer_1" xmlns="http://www.w3.org/2000/svg" xmlns:xlink="http://www.w3.org/1999/xlink" x="0px" y="0px"
	 viewBox="0 0 26.5 27.2" style="enable-background:new 0 0 26.5 27.2;" xml:space="preserve">
<style type="text/css">
	.st0{fill:#70C9BE;}
	.st1{fill:#F89621;}
</style>
<title>Asset 22</title>
<g>
	<g id="Layer_1-2">
		<path class="st0" d="M18.8,0h7.1c0.4,0,0.6,0.3,0.6,0.6v16.1v0.4v0.4l-0.1,0.4l-0.1,0.4l-0.1,0.4l-0.1,0.4L26,19.5l-0.1,0.4
			l-0.2,0.4l-0.2,0.4l-0.2,0.4L25,21.5L24.6,22l-0.4,0.5l-0.4,0.5l-0.5,0.5l-0.5,0.4l-0.5,0.4l-0.5,0.4l-0.5,0.3l-0.6,0.3l-0.6,0.3
			l-0.6,0.2L19,25.9l-0.6,0.2l-0.6,0.2l-0.6,0.2l-0.6,0.1l-0.6,0.1l-0.6,0.1L14.6,27l-0.7,0.1l-0.6,0.1l-0.6,0h-0.7H0.6
			c-0.4,0-0.6-0.3-0.6-0.7c0-0.1,0-0.2,0.1-0.3l4.4-5.6c0.1-0.2,0.3-0.2,0.5-0.2h7.5h0.3h0.3l0.3-0.1l0.3-0.1l0.3-0.1l0.3-0.1
			l0.3-0.1l0.3-0.1l0.3-0.1l0.3-0.1l0.4-0.2l0.3-0.2l0.3-0.3l0.3-0.3l0.3-0.3l0.2-0.3l0.2-0.4l0.2-0.4l0.1-0.4l0.1-0.4l0-0.4v-0.4
			v-15C18.1,0.3,18.4,0,18.8,0C18.8,0,18.8,0,18.8,0z"/>
		<path class="st1" d="M14.7,14.2L2.6,1.1c-0.2-0.3-0.2-0.7,0-0.9C2.8,0.1,2.9,0,3.1,0h8.8c0.2,0,0.4,0.1,0.5,0.2l3.3,3.6
			c0.1,0.1,0.2,0.3,0.2,0.4v9.6c0,0.4-0.3,0.6-0.6,0.6C15,14.4,14.8,14.4,14.7,14.2z"/>
	</g>
</g>
</svg>
