<svg xmlns="http://www.w3.org/2000/svg" viewBox="0 0 31.14 34.63"><defs><style>.cls-1{fill:#70c8bd;}.cls-1,.cls-10,.cls-11,.cls-2,.cls-3,.cls-4,.cls-5,.cls-6,.cls-7,.cls-8,.cls-9{fill-rule:evenodd;}.cls-2{fill:#273465;}.cls-3{fill:#304972;}.cls-4{fill:#3a5d7e;}.cls-5{fill:#436d89;}.cls-6{fill:#56939f;}.cls-7{fill:#4f8396;}.cls-8{fill:#64aeaf;}.cls-9{fill:#6ab9b5;}.cls-10{fill:#6dc1b9;}.cls-11{fill:#5ea2a8;}</style></defs><title>j-logo_3</title><g id="Layer_2" data-name="Layer 2"><g id="Layer_1-2" data-name="Layer 1"><path class="cls-1" d="M20.77,32.27c-5.26,3.15-5.13,3.15-10.4,0l5.2-3Z"/><path class="cls-2" d="M15.57,5.36l-5.2-3c5.27-3.15,5.14-3.15,10.4,0Z"/><path class="cls-3" d="M20.75,8.35l-5.18-3,5.2-3c.74.44,1.58,1,2.56,1.51S25.19,4.93,26,5.35Z"/><path class="cls-4" d="M30.56,8.66C29.92,7.55,28.61,6.83,26,5.35l-5.2,3,5.17,3Z"/><path class="cls-5" d="M30.56,8.66l-4.64,2.68,5.18,3,0,0C31.17,11.27,31.21,9.77,30.56,8.66Z"/><path class="cls-6" d="M31.12,14.34h0l-5.18,3h0l5.18,3h0c0-.86,0-1.84,0-3S31.11,15.2,31.12,14.34Z"/><polygon class="cls-6" points="25.92 17.32 25.92 17.32 25.92 17.32 25.92 17.32"/><polygon class="cls-7" points="20.75 14.33 20.75 14.33 20.75 14.33 20.75 14.33"/><path class="cls-7" d="M25.92,11.63v5.68l5.18-3-5.18-3-.07,0A.43.43,0,0,1,25.92,11.63Z"/><path class="cls-5" d="M21.5,8.79l4.17,2.41a.39.39,0,0,1,.18.18l.07,0-5.17-3-5.18,3,5.18,3h0V9.22A.5.5,0,0,1,21.5,8.79Z"/><polygon class="cls-4" points="20.75 8.35 15.57 5.37 10.4 8.35 15.57 11.34 20.75 8.35"/><path class="cls-3" d="M15.57,5.36l-5.17,3-5.2-3C6,4.93,6.82,4.44,7.81,3.87S9.63,2.8,10.37,2.36Z"/><path class="cls-4" d="M5.2,5.35c-2.66,1.48-4,2.2-4.62,3.31l4.64,2.68,5.18-3Z"/><polygon class="cls-5" points="15.57 11.34 10.4 8.35 5.22 11.34 10.4 14.33 15.57 11.34"/><polygon class="cls-7" points="20.75 14.33 15.57 11.34 10.4 14.33 15.57 17.32 20.75 14.33"/><path class="cls-6" d="M20.75,14.33h0l-5.18,3,5.11,2.94a.52.52,0,0,0,.07-.25Z"/><path class="cls-8" d="M31.12,20.32l0,0-5.18,3L30.56,26C31.21,24.86,31.17,23.36,31.12,20.32Z"/><path class="cls-9" d="M25.92,23.29l-.25.14h0l-4.92,2.84,5.2,3c2.66-1.48,4-2.2,4.61-3.31Z"/><polygon class="cls-9" points="25.67 23.43 20.75 26.28 20.75 26.28 25.67 23.44 25.67 23.43"/><path class="cls-8" d="M25.92,23.29l-.07,0a.39.39,0,0,1-.18.18Z"/><polygon class="cls-8" points="20.5 20.45 20.5 20.45 15.82 23.15 15.82 23.14 20.5 20.45"/><path class="cls-10" d="M20.75,26.28l-4.93,2.84h0l-.25.14,5.2,3c.74-.45,1.58-1,2.56-1.51S25.19,29.7,26,29.28Z"/><polygon class="cls-10" points="20.75 26.28 20.75 26.28 15.82 29.12 15.82 29.12 20.75 26.28"/><path class="cls-9" d="M15.32,29.12l.25.14.25-.14A.5.5,0,0,1,15.32,29.12Z"/><polygon class="cls-6" points="15.57 17.32 10.4 14.33 5.22 17.32 10.4 20.3 15.57 17.32"/><path class="cls-11" d="M15.82,23.15l4.68-2.7a.55.55,0,0,0,.18-.19l-5.11-2.94-5.17,3,4.92,2.85A.55.55,0,0,0,15.82,23.15Z"/><path class="cls-11" d="M20.75,20.3l-.07,0a.55.55,0,0,1-.18.19Z"/><path class="cls-11" d="M15.82,23.15a.55.55,0,0,1-.5,0l.25.14Z"/><path class="cls-11" d="M31.12,20.3l-5.17-3h0V23a.48.48,0,0,1-.06.24l.09.05Z"/><path class="cls-8" d="M6,22.86l-.74.43.75.43A.5.5,0,0,1,6,22.86Z"/><path class="cls-8" d="M10.63,20.43l4.69,2.72h0L10.4,20.3l-.19.11A.51.51,0,0,1,10.63,20.43Z"/><path class="cls-11" d="M10.12,20.44l.09,0,.19-.11-5.18-3-5.17,3,5.17,3L6,22.86H6Z"/><path class="cls-11" d="M10.12,20.44,6,22.85H6l4.25-2.45Z"/><path class="cls-6" d="M5.22,17.32l-5.17,3H0c0-.86,0-1.84,0-3s0-2.12,0-3h0Z"/><path class="cls-5" d="M5.22,11.34l-5.17,3,0,0c0-3-.08-4.54.56-5.65Z"/><polygon class="cls-7" points="5.22 11.34 0.05 14.33 5.22 17.32 10.4 14.33 5.22 11.34"/><path class="cls-8" d="M5.22,23.29.58,26C-.06,24.86,0,23.36,0,20.32l0,0Z"/><path class="cls-9" d="M6,23.72l-.75-.43L.58,26c.64,1.11,2,1.83,4.62,3.31l5.2-3L6,23.72Z"/><polygon class="cls-9" points="5.97 23.72 5.97 23.72 10.4 26.28 10.4 26.28 5.97 23.72"/><path class="cls-10" d="M10.4,26.28l-5.2,3c.76.42,1.62.9,2.61,1.48s1.82,1.06,2.56,1.51l5.2-3-.25-.14h0Z"/><polygon class="cls-10" points="10.4 26.28 15.32 29.12 15.32 29.12 10.4 26.28 10.4 26.28"/></g></g></svg>