<?xml version="1.0" encoding="utf-8"?>
<!-- Generator: Adobe Illustrator 23.0.2, SVG Export Plug-In . SVG Version: 6.00 Build 0)  -->
<svg version="1.1" id="Layer_1" xmlns="http://www.w3.org/2000/svg" xmlns:xlink="http://www.w3.org/1999/xlink" x="0px" y="0px"
	 viewBox="0 0 33.7 39" style="enable-background:new 0 0 33.7 39;" xml:space="preserve">
<style type="text/css">
	.st0{fill:#70C9BE;}
</style>
<title>j-logo_6</title>
<g>
	<g id="Layer_1-2">
		<path class="st0" d="M16.9,2.9L2.5,11.2v16.5L16.9,36l14.3-8.3V11.2L16.9,2.9z M25.3,24.3l-8.4,4.9l-8.4-4.9v-9.7l8.4-4.9l8.4,4.9
			V24.3z"/>
		<polygon points="8.7,24.5 16.9,29.2 25.3,24.3 25.3,14.6 20.9,12.1 20.9,21.8 16.9,24.2 13.1,22 		"/>
		<path d="M16.9,2.9l14.3,8.3v16.5L16.9,36L2.5,27.8V11.2L16.9,2.9 M16.9,0l-1.3,0.7L1.3,9L0,9.7v19.5L1.3,30l14.3,8.2l1.3,0.7
			l1.3-0.7L32.5,30l1.3-0.7V9.7L32.5,9L18.1,0.7L16.9,0z"/>
	</g>
</g>
</svg>
