<svg xmlns="http://www.w3.org/2000/svg" viewBox="0 0 33.74 38.95"><defs><style>.cls-1{fill:#70c9be;}</style></defs><title>j-logo_6</title><g id="Layer_2" data-name="Layer 2"><g id="Layer_1-2" data-name="Layer 1"><path class="cls-1" d="M16.87,2.94,2.54,11.21V27.75L16.87,36l14.32-8.27V11.21Zm10.67,22.7L16.87,31.8,6.19,25.64V13.31L16.87,7.15l10.67,6.16Z"/><polygon points="9.64 23.96 16.9 28.15 24.41 23.81 24.41 15.14 20.51 12.89 20.51 21.56 16.9 23.64 13.55 21.7 9.64 23.96"/><path d="M16.87,2.94l14.32,8.27V27.75L16.87,36,2.54,27.75V11.21L16.87,2.94m0-2.94L15.6.73,1.27,9,0,9.74V29.22L1.27,30,15.6,38.22l1.27.73,1.27-.73L32.46,30l1.28-.73V9.74L32.46,9,18.14.73,16.87,0Z"/></g></g></svg>