<svg xmlns="http://www.w3.org/2000/svg" viewBox="0 0 25.08 25.62"><defs><style>.cls-1{fill:#70c9be;}</style></defs><title>j-logo_1</title><g id="Layer_2" data-name="Layer 2"><g id="Layer_1-2" data-name="Layer 1"><path class="cls-1" d="M17.7,0h6.88a.5.5,0,0,1,.5.5V15.75l0,.38,0,.37-.06.38-.07.37-.1.37-.1.36-.13.36-.13.35-.16.35-.16.34-.19.33-.31.51-.35.49-.37.47-.39.44-.43.42-.44.4-.47.37-.49.34-.5.32-.53.28-.54.25-.55.22-.59.21-.58.19-.6.17-.59.16-.6.14-.61.13-.61.1-.61.1-.61.07-.62.06-.62,0-.61,0H.5a.51.51,0,0,1-.39-.82l4.33-5.46a.49.49,0,0,1,.39-.19h6.78l.31,0,.32,0,.31-.05.32-.05.31-.07.3-.08.31-.09.3-.1.29-.12.3-.12.28-.14.33-.18.31-.21.28-.24.27-.27.23-.29.21-.3.19-.33.15-.34.12-.36.08-.36.05-.37,0-.37V.5A.5.5,0,0,1,17.7,0Z"/><path class="cls-1" d="M15.77,15.36,2.41.84A.5.5,0,0,1,2.78,0h8.6a.52.52,0,0,1,.37.16l4,4.34a.47.47,0,0,1,.14.33v9.79l0,.29,0,.24Z"/></g></g></svg>