<?xml version="1.0" encoding="utf-8"?>
<!-- Generator: Adobe Illustrator 23.0.2, SVG Export Plug-In . SVG Version: 6.00 Build 0)  -->
<svg version="1.1" id="Layer_1" xmlns="http://www.w3.org/2000/svg" xmlns:xlink="http://www.w3.org/1999/xlink" x="0px" y="0px"
	 viewBox="0 0 50 50" style="enable-background:new 0 0 50 50;" xml:space="preserve">
<style type="text/css">
	.st0{fill:#70C9BE;}
</style>
<circle class="st0" cx="25" cy="25" r="25"/>
<path d="M25,0C11.19,0,0,11.19,0,25s11.19,25,25,25s25-11.19,25-25S38.81,0,25,0z M17.74,37.79h-6.09V19.48h6.09V37.79z
	 M14.69,16.97h-0.04c-2.04,0-3.36-1.41-3.36-3.16c0-1.8,1.36-3.17,3.44-3.17s3.36,1.37,3.4,3.17
	C18.14,15.57,16.81,16.97,14.69,16.97z M39.69,37.79H33.6v-9.8c0-2.46-0.88-4.14-3.08-4.14c-1.68,0-2.68,1.13-3.12,2.23
	c-0.16,0.39-0.2,0.94-0.2,1.49V37.8h-6.1c0,0,0.08-16.6,0-18.32h6.09v2.59c0.81-1.25,2.26-3.02,5.49-3.02
	c4.01,0,7.01,2.62,7.01,8.24C39.69,27.29,39.69,37.79,39.69,37.79z"/>
</svg>
