<?xml version="1.0" encoding="utf-8"?>
<!-- Generator: Adobe Illustrator 23.0.2, SVG Export Plug-In . SVG Version: 6.00 Build 0)  -->
<svg version="1.1" id="_x30_" xmlns="http://www.w3.org/2000/svg" xmlns:xlink="http://www.w3.org/1999/xlink" x="0px" y="0px"
	 viewBox="0 0 600 606.18" style="enable-background:new 0 0 600 606.18;" xml:space="preserve">
<style type="text/css">
	.st0{fill:none;stroke:#CECECE;stroke-linecap:round;stroke-linejoin:round;stroke-miterlimit:10;}
</style>
<g id="LINE">
	<line class="st0" x1="112.5" y1="606.18" x2="112.5" y2="541.23"/>
</g>
<g id="LINE_1_">
	<line class="st0" x1="37.5" y1="606.18" x2="37.5" y2="584.53"/>
</g>
<g id="LINE_2_">
	<line class="st0" x1="525" y1="389.69" x2="525" y2="346.39"/>
</g>
<g id="LINE_3_">
	<line class="st0" x1="450" y1="303.09" x2="450" y2="216.49"/>
</g>
<g id="LINE_4_">
	<line class="st0" x1="412.5" y1="411.34" x2="412.5" y2="368.04"/>
</g>
<g id="LINE_5_">
	<line class="st0" x1="75" y1="606.18" x2="75" y2="562.88"/>
</g>
<g id="LINE_6_">
	<line class="st0" x1="412.5" y1="281.44" x2="412.5" y2="238.14"/>
</g>
<g id="LINE_7_">
	<line class="st0" x1="525" y1="173.19" x2="450" y2="216.49"/>
</g>
<g id="LINE_8_">
	<line class="st0" x1="337.5" y1="281.44" x2="300" y2="303.09"/>
</g>
<g id="LINE_9_">
	<line class="st0" x1="525" y1="216.49" x2="487.5" y2="238.14"/>
</g>
<g id="LINE_10_">
	<line class="st0" x1="412.5" y1="281.44" x2="375" y2="303.09"/>
</g>
<g id="LINE_11_">
	<line class="st0" x1="450" y1="476.28" x2="450" y2="432.99"/>
</g>
<g id="LINE_12_">
	<line class="st0" x1="450" y1="346.39" x2="450" y2="303.09"/>
</g>
<g id="LINE_13_">
	<line class="st0" x1="412.5" y1="497.93" x2="412.5" y2="454.64"/>
</g>
<g id="LINE_14_">
	<line class="st0" x1="450" y1="562.88" x2="412.5" y2="584.53"/>
</g>
<g id="LINE_15_">
	<line class="st0" x1="487.5" y1="281.44" x2="450" y2="303.09"/>
</g>
<g id="LINE_16_">
	<line class="st0" x1="525" y1="303.09" x2="487.5" y2="324.74"/>
</g>
<g id="LINE_17_">
	<line class="st0" x1="450" y1="346.39" x2="412.5" y2="368.04"/>
</g>
<g id="LINE_18_">
	<line class="st0" x1="412.5" y1="368.04" x2="375" y2="389.69"/>
</g>
<g id="LINE_19_">
	<line class="st0" x1="600" y1="303.09" x2="562.5" y2="324.74"/>
</g>
<g id="LINE_20_">
	<line class="st0" x1="450" y1="476.28" x2="412.5" y2="497.93"/>
</g>
<g id="LINE_21_">
	<line class="st0" x1="450" y1="43.3" x2="375" y2="86.6"/>
</g>
<g id="LINE_22_">
	<line class="st0" x1="337.5" y1="151.55" x2="300" y2="173.19"/>
</g>
<g id="LINE_23_">
	<line class="st0" x1="525" y1="476.28" x2="525" y2="432.99"/>
</g>
<g id="LINE_24_">
	<line class="st0" x1="375" y1="519.58" x2="375" y2="432.99"/>
</g>
<g id="LINE_25_">
	<line class="st0" x1="525" y1="346.39" x2="487.5" y2="368.04"/>
</g>
<g id="LINE_26_">
	<line class="st0" x1="562.5" y1="454.64" x2="562.5" y2="411.34"/>
</g>
<g id="LINE_27_">
	<line class="st0" x1="562.5" y1="324.74" x2="562.5" y2="281.44"/>
</g>
<g id="LINE_28_">
	<line class="st0" x1="562.5" y1="541.23" x2="525" y2="562.88"/>
</g>
<g id="LINE_29_">
	<line class="st0" x1="562.5" y1="411.34" x2="562.5" y2="368.04"/>
</g>
<g id="LINE_30_">
	<line class="st0" x1="600" y1="346.39" x2="562.5" y2="368.04"/>
</g>
<g id="LINE_31_">
	<line class="st0" x1="525" y1="389.69" x2="487.5" y2="411.34"/>
</g>
<g id="LINE_32_">
	<line class="st0" x1="450" y1="432.99" x2="412.5" y2="454.64"/>
</g>
<g id="LINE_33_">
	<line class="st0" x1="487.5" y1="497.93" x2="487.5" y2="411.34"/>
</g>
<g id="LINE_34_">
	<line class="st0" x1="487.5" y1="21.65" x2="450" y2="43.3"/>
</g>
<g id="LINE_35_">
	<line class="st0" x1="562.5" y1="497.93" x2="487.5" y2="541.23"/>
</g>
<g id="LINE_36_">
	<line class="st0" x1="600" y1="216.49" x2="562.5" y2="238.14"/>
</g>
<g id="LINE_37_">
	<line class="st0" x1="562.5" y1="238.14" x2="525" y2="259.79"/>
</g>
<g id="LINE_38_">
	<line class="st0" x1="450" y1="303.09" x2="412.5" y2="324.74"/>
</g>
<g id="LINE_39_">
	<line class="st0" x1="562.5" y1="541.23" x2="562.5" y2="497.93"/>
</g>
<g id="LINE_40_">
	<line class="st0" x1="562.5" y1="238.14" x2="562.5" y2="194.84"/>
</g>
<g id="LINE_41_">
	<line class="st0" x1="337.5" y1="541.23" x2="300" y2="562.88"/>
</g>
<g id="LINE_42_">
	<line class="st0" x1="525" y1="476.28" x2="487.5" y2="497.93"/>
</g>
<g id="LINE_43_">
	<line class="st0" x1="375" y1="562.88" x2="300" y2="606.18"/>
</g>
<g id="LINE_44_">
	<line class="st0" x1="525" y1="43.3" x2="487.5" y2="64.95"/>
</g>
<g id="LINE_45_">
	<line class="st0" x1="450" y1="86.6" x2="412.5" y2="108.25"/>
</g>
<g id="LINE_46_">
	<line class="st0" x1="600" y1="173.19" x2="562.5" y2="194.84"/>
</g>
<g id="LINE_47_">
	<line class="st0" x1="412.5" y1="238.14" x2="375" y2="259.79"/>
</g>
<g id="LINE_48_">
	<line class="st0" x1="562.5" y1="411.34" x2="525" y2="432.99"/>
</g>
<g id="LINE_49_">
	<line class="st0" x1="412.5" y1="21.65" x2="375" y2="43.3"/>
</g>
<g id="LINE_50_">
	<line class="st0" x1="300" y1="432.99" x2="262.5" y2="454.64"/>
</g>
<g id="LINE_51_">
	<line class="st0" x1="525" y1="86.6" x2="487.5" y2="108.25"/>
</g>
<g id="LINE_52_">
	<line class="st0" x1="112.5" y1="454.64" x2="75" y2="476.28"/>
</g>
<g id="LINE_53_">
	<line class="st0" x1="487.5" y1="108.25" x2="450" y2="129.9"/>
</g>
<g id="LINE_54_">
	<line class="st0" x1="112.5" y1="281.44" x2="75" y2="303.09"/>
</g>
<g id="LINE_55_">
	<line class="st0" x1="375" y1="303.09" x2="375" y2="259.79"/>
</g>
<g id="LINE_56_">
	<line class="st0" x1="300" y1="562.88" x2="300" y2="476.28"/>
</g>
<g id="LINE_57_">
	<line class="st0" x1="487.5" y1="368.04" x2="487.5" y2="324.74"/>
</g>
<g id="LINE_58_">
	<line class="st0" x1="562.5" y1="64.95" x2="562.5" y2="0"/>
</g>
<g id="LINE_59_">
	<line class="st0" x1="525" y1="303.09" x2="525" y2="259.79"/>
</g>
<g id="LINE_60_">
	<line class="st0" x1="487.5" y1="281.44" x2="487.5" y2="238.14"/>
</g>
<g id="LINE_61_">
	<line class="st0" x1="337.5" y1="238.14" x2="337.5" y2="194.84"/>
</g>
<g id="LINE_62_">
	<line class="st0" x1="150" y1="606.18" x2="150" y2="562.88"/>
</g>
<g id="LINE_63_">
	<line class="st0" x1="187.5" y1="411.34" x2="150" y2="432.99"/>
</g>
<g id="LINE_64_">
	<line class="st0" x1="412.5" y1="368.04" x2="412.5" y2="324.74"/>
</g>
<g id="LINE_65_">
	<line class="st0" x1="412.5" y1="151.55" x2="412.5" y2="108.25"/>
</g>
<g id="LINE_66_">
	<line class="st0" x1="450" y1="43.3" x2="450" y2="0"/>
</g>
<g id="LINE_67_">
	<line class="st0" x1="187.5" y1="497.93" x2="112.5" y2="541.23"/>
</g>
<g id="LINE_68_">
	<line class="st0" x1="525" y1="86.6" x2="562.5" y2="108.25"/>
</g>
<g id="LINE_69_">
	<line class="st0" x1="525" y1="216.49" x2="525" y2="173.19"/>
</g>
<g id="LINE_70_">
	<line class="st0" x1="37.5" y1="497.93" x2="0" y2="519.58"/>
</g>
<g id="LINE_71_">
	<line class="st0" x1="300" y1="259.79" x2="225" y2="303.09"/>
</g>
<g id="LINE_72_">
	<line class="st0" x1="412.5" y1="108.25" x2="450" y2="129.9"/>
</g>
<g id="LINE_73_">
	<line class="st0" x1="525" y1="173.19" x2="562.5" y2="194.84"/>
</g>
<g id="LINE_74_">
	<line class="st0" x1="525" y1="562.88" x2="562.5" y2="584.53"/>
</g>
<g id="LINE_75_">
	<line class="st0" x1="525" y1="43.3" x2="525" y2="0"/>
</g>
<g id="LINE_76_">
	<line class="st0" x1="375" y1="129.9" x2="375" y2="86.6"/>
</g>
<g id="LINE_77_">
	<line class="st0" x1="487.5" y1="108.25" x2="487.5" y2="64.95"/>
</g>
<g id="LINE_78_">
	<line class="st0" x1="375" y1="216.49" x2="375" y2="173.19"/>
</g>
<g id="LINE_79_">
	<line class="st0" x1="450" y1="86.6" x2="450" y2="43.3"/>
</g>
<g id="LINE_80_">
	<line class="st0" x1="375" y1="432.99" x2="375" y2="389.69"/>
</g>
<g id="LINE_81_">
	<line class="st0" x1="525" y1="129.9" x2="600" y2="173.19"/>
</g>
<g id="LINE_82_">
	<line class="st0" x1="337.5" y1="541.23" x2="375" y2="519.58"/>
</g>
<g id="LINE_83_">
	<line class="st0" x1="337.5" y1="541.23" x2="337.5" y2="454.64"/>
</g>
<g id="LINE_84_">
	<line class="st0" x1="300" y1="346.39" x2="337.5" y2="324.74"/>
</g>
<g id="LINE_85_">
	<line class="st0" x1="337.5" y1="324.74" x2="337.5" y2="281.44"/>
</g>
<g id="LINE_86_">
	<line class="st0" x1="525" y1="86.6" x2="525" y2="129.9"/>
</g>
<g id="LINE_87_">
	<line class="st0" x1="562.5" y1="64.95" x2="525" y2="86.6"/>
</g>
<g id="LINE_88_">
	<line class="st0" x1="600" y1="86.6" x2="562.5" y2="108.25"/>
</g>
<g id="LINE_89_">
	<line class="st0" x1="525" y1="129.9" x2="450" y2="173.19"/>
</g>
<g id="LINE_90_">
	<line class="st0" x1="75" y1="43.3" x2="37.5" y2="64.95"/>
</g>
<g id="LINE_91_">
	<line class="st0" x1="300" y1="476.28" x2="262.5" y2="497.93"/>
</g>
<g id="LINE_92_">
	<line class="st0" x1="262.5" y1="541.23" x2="262.5" y2="497.93"/>
</g>
<g id="LINE_93_">
	<line class="st0" x1="75" y1="562.88" x2="37.5" y2="584.53"/>
</g>
<g id="LINE_94_">
	<line class="st0" x1="187.5" y1="541.23" x2="150" y2="562.88"/>
</g>
<g id="LINE_95_">
	<line class="st0" x1="375" y1="216.49" x2="337.5" y2="238.14"/>
</g>
<g id="LINE_96_">
	<line class="st0" x1="300" y1="173.19" x2="337.5" y2="194.84"/>
</g>
<g id="LINE_97_">
	<line class="st0" x1="375" y1="216.49" x2="412.5" y2="238.14"/>
</g>
<g id="LINE_98_">
	<line class="st0" x1="487.5" y1="238.14" x2="525" y2="259.79"/>
</g>
<g id="LINE_99_">
	<line class="st0" x1="412.5" y1="497.93" x2="487.5" y2="541.23"/>
</g>
<g id="LINE_100_">
	<line class="st0" x1="450" y1="86.6" x2="487.5" y2="108.25"/>
</g>
<g id="LINE_101_">
	<line class="st0" x1="487.5" y1="21.65" x2="525" y2="43.3"/>
</g>
<g id="LINE_102_">
	<line class="st0" x1="375" y1="562.88" x2="412.5" y2="584.53"/>
</g>
<g id="LINE_103_">
	<line class="st0" x1="300" y1="43.3" x2="375" y2="86.6"/>
</g>
<g id="LINE_104_">
	<line class="st0" x1="375" y1="129.9" x2="412.5" y2="151.55"/>
</g>
<g id="LINE_105_">
	<line class="st0" x1="412.5" y1="151.55" x2="450" y2="173.19"/>
</g>
<g id="LINE_106_">
	<line class="st0" x1="450" y1="43.3" x2="487.5" y2="64.95"/>
</g>
<g id="LINE_107_">
	<line class="st0" x1="337.5" y1="21.65" x2="375" y2="43.3"/>
</g>
<g id="LINE_108_">
	<line class="st0" x1="375" y1="0" x2="412.5" y2="21.65"/>
</g>
<g id="LINE_109_">
	<line class="st0" x1="337.5" y1="541.23" x2="375" y2="562.88"/>
</g>
<g id="LINE_110_">
	<line class="st0" x1="562.5" y1="108.25" x2="600" y2="129.9"/>
</g>
<g id="LINE_111_">
	<line class="st0" x1="525" y1="216.49" x2="562.5" y2="238.14"/>
</g>
<g id="LINE_112_">
	<line class="st0" x1="262.5" y1="108.25" x2="337.5" y2="151.55"/>
</g>
<g id="LINE_113_">
	<line class="st0" x1="375" y1="173.19" x2="450" y2="216.49"/>
</g>
<g id="LINE_114_">
	<line class="st0" x1="562.5" y1="64.95" x2="600" y2="86.6"/>
</g>
<g id="LINE_115_">
	<line class="st0" x1="412.5" y1="21.65" x2="450" y2="43.3"/>
</g>
<g id="LINE_116_">
	<line class="st0" x1="300" y1="86.6" x2="375" y2="129.9"/>
</g>
<g id="LINE_117_">
	<line class="st0" x1="487.5" y1="21.65" x2="487.5" y2="0"/>
</g>
<g id="LINE_118_">
	<line class="st0" x1="562.5" y1="368.04" x2="600" y2="389.69"/>
</g>
<g id="LINE_119_">
	<line class="st0" x1="525" y1="432.99" x2="562.5" y2="454.64"/>
</g>
<g id="LINE_120_">
	<line class="st0" x1="412.5" y1="411.34" x2="450" y2="432.99"/>
</g>
<g id="LINE_121_">
	<line class="st0" x1="525" y1="476.28" x2="562.5" y2="497.93"/>
</g>
<g id="LINE_122_">
	<line class="st0" x1="412.5" y1="368.04" x2="487.5" y2="411.34"/>
</g>
<g id="LINE_123_">
	<line class="st0" x1="450" y1="346.39" x2="487.5" y2="368.04"/>
</g>
<g id="LINE_124_">
	<line class="st0" x1="450" y1="303.09" x2="487.5" y2="324.74"/>
</g>
<g id="LINE_125_">
	<line class="st0" x1="300" y1="346.39" x2="337.5" y2="368.04"/>
</g>
<g id="LINE_126_">
	<line class="st0" x1="375" y1="303.09" x2="412.5" y2="324.74"/>
</g>
<g id="LINE_127_">
	<line class="st0" x1="412.5" y1="281.44" x2="450" y2="303.09"/>
</g>
<g id="LINE_128_">
	<line class="st0" x1="487.5" y1="281.44" x2="525" y2="303.09"/>
</g>
<g id="LINE_129_">
	<line class="st0" x1="562.5" y1="541.23" x2="600" y2="562.88"/>
</g>
<g id="LINE_130_">
	<line class="st0" x1="337.5" y1="324.74" x2="412.5" y2="368.04"/>
</g>
<g id="LINE_131_">
	<line class="st0" x1="300" y1="259.79" x2="337.5" y2="281.44"/>
</g>
<g id="LINE_132_">
	<line class="st0" x1="337.5" y1="238.14" x2="375" y2="259.79"/>
</g>
<g id="LINE_133_">
	<line class="st0" x1="375" y1="519.58" x2="450" y2="562.88"/>
</g>
<g id="LINE_134_">
	<line class="st0" x1="450" y1="606.18" x2="450" y2="562.88"/>
</g>
<g id="LINE_135_">
	<line class="st0" x1="375" y1="606.18" x2="375" y2="562.88"/>
</g>
<g id="LINE_136_">
	<line class="st0" x1="562.5" y1="606.18" x2="562.5" y2="584.53"/>
</g>
<g id="LINE_137_">
	<line class="st0" x1="412.5" y1="606.18" x2="412.5" y2="584.53"/>
</g>
<g id="LINE_138_">
	<line class="st0" x1="487.5" y1="606.18" x2="487.5" y2="541.23"/>
</g>
<g id="LINE_139_">
	<line class="st0" x1="450" y1="476.28" x2="487.5" y2="497.93"/>
</g>
<g id="LINE_140_">
	<line class="st0" x1="375" y1="173.19" x2="337.5" y2="194.84"/>
</g>
<g id="LINE_141_">
	<line class="st0" x1="525" y1="606.18" x2="525" y2="562.88"/>
</g>
<g id="LINE_142_">
	<line class="st0" x1="337.5" y1="21.65" x2="300" y2="43.3"/>
</g>
<g id="LINE_143_">
	<line class="st0" x1="450" y1="173.19" x2="450" y2="129.9"/>
</g>
<g id="LINE_144_">
	<line class="st0" x1="412.5" y1="411.34" x2="375" y2="432.99"/>
</g>
<g id="LINE_145_">
	<line class="st0" x1="412.5" y1="454.64" x2="375" y2="432.99"/>
</g>
<g id="LINE_146_">
	<line class="st0" x1="600" y1="432.99" x2="562.5" y2="411.34"/>
</g>
<g id="LINE_147_">
	<line class="st0" x1="600" y1="519.58" x2="562.5" y2="497.93"/>
</g>
<g id="LINE_148_">
	<line class="st0" x1="562.5" y1="497.93" x2="600" y2="476.28"/>
</g>
<g id="LINE_149_">
	<line class="st0" x1="600" y1="43.3" x2="562.5" y2="64.95"/>
</g>
<g id="LINE_150_">
	<line class="st0" x1="262.5" y1="21.65" x2="225" y2="43.3"/>
</g>
<g id="LINE_151_">
	<line class="st0" x1="225" y1="43.3" x2="187.5" y2="64.95"/>
</g>
<g id="LINE_152_">
	<line class="st0" x1="37.5" y1="151.55" x2="0" y2="173.19"/>
</g>
<g id="LINE_153_">
	<line class="st0" x1="187.5" y1="368.04" x2="37.5" y2="454.64"/>
</g>
<g id="LINE_154_">
	<line class="st0" x1="225" y1="606.18" x2="225" y2="562.88"/>
</g>
<g id="LINE_155_">
	<line class="st0" x1="187.5" y1="606.18" x2="187.5" y2="584.53"/>
</g>
<g id="LINE_156_">
	<line class="st0" x1="75" y1="303.09" x2="37.5" y2="324.74"/>
</g>
<g id="LINE_157_">
	<line class="st0" x1="300" y1="86.6" x2="262.5" y2="108.25"/>
</g>
<g id="LINE_158_">
	<line class="st0" x1="262.5" y1="108.25" x2="225" y2="129.9"/>
</g>
<g id="LINE_159_">
	<line class="st0" x1="75" y1="216.49" x2="37.5" y2="238.14"/>
</g>
<g id="LINE_160_">
	<line class="st0" x1="262.5" y1="238.14" x2="225" y2="259.79"/>
</g>
<g id="LINE_161_">
	<line class="st0" x1="187.5" y1="281.44" x2="150" y2="303.09"/>
</g>
<g id="LINE_162_">
	<line class="st0" x1="150" y1="303.09" x2="112.5" y2="324.74"/>
</g>
<g id="LINE_163_">
	<line class="st0" x1="75" y1="346.39" x2="37.5" y2="368.04"/>
</g>
<g id="LINE_164_">
	<line class="st0" x1="37.5" y1="368.04" x2="0" y2="389.69"/>
</g>
<g id="LINE_165_">
	<line class="st0" x1="150" y1="86.6" x2="112.5" y2="108.25"/>
</g>
<g id="LINE_166_">
	<line class="st0" x1="150" y1="346.39" x2="112.5" y2="368.04"/>
</g>
<g id="LINE_167_">
	<line class="st0" x1="75" y1="389.69" x2="0" y2="432.99"/>
</g>
<g id="LINE_168_">
	<line class="st0" x1="225" y1="0" x2="187.5" y2="21.65"/>
</g>
<g id="LINE_169_">
	<line class="st0" x1="150" y1="43.3" x2="112.5" y2="64.95"/>
</g>
<g id="LINE_170_">
	<line class="st0" x1="75" y1="86.6" x2="37.5" y2="108.25"/>
</g>
<g id="LINE_171_">
	<line class="st0" x1="150" y1="0" x2="112.5" y2="21.65"/>
</g>
<g id="LINE_172_">
	<line class="st0" x1="112.5" y1="21.65" x2="75" y2="43.3"/>
</g>
<g id="LINE_173_">
	<line class="st0" x1="262.5" y1="151.55" x2="262.5" y2="108.25"/>
</g>
<g id="LINE_174_">
	<line class="st0" x1="225" y1="562.88" x2="225" y2="476.28"/>
</g>
<g id="LINE_175_">
	<line class="st0" x1="187.5" y1="454.64" x2="187.5" y2="411.34"/>
</g>
<g id="LINE_176_">
	<line class="st0" x1="112.5" y1="238.14" x2="75" y2="259.79"/>
</g>
<g id="LINE_177_">
	<line class="st0" x1="225" y1="129.9" x2="225" y2="86.6"/>
</g>
<g id="LINE_178_">
	<line class="st0" x1="75" y1="43.3" x2="75" y2="0"/>
</g>
<g id="LINE_179_">
	<line class="st0" x1="187.5" y1="151.55" x2="150" y2="173.19"/>
</g>
<g id="LINE_180_">
	<line class="st0" x1="37.5" y1="497.93" x2="112.5" y2="541.23"/>
</g>
<g id="LINE_181_">
	<line class="st0" x1="262.5" y1="497.93" x2="262.5" y2="454.64"/>
</g>
<g id="LINE_182_">
	<line class="st0" x1="0" y1="476.28" x2="37.5" y2="497.93"/>
</g>
<g id="LINE_183_">
	<line class="st0" x1="37.5" y1="21.65" x2="75" y2="43.3"/>
</g>
<g id="LINE_184_">
	<line class="st0" x1="112.5" y1="497.93" x2="112.5" y2="454.64"/>
</g>
<g id="LINE_185_">
	<line class="st0" x1="225" y1="476.28" x2="262.5" y2="497.93"/>
</g>
<g id="LINE_186_">
	<line class="st0" x1="0" y1="303.09" x2="37.5" y2="324.74"/>
</g>
<g id="LINE_187_">
	<line class="st0" x1="262.5" y1="64.95" x2="262.5" y2="21.65"/>
</g>
<g id="LINE_188_">
	<line class="st0" x1="300" y1="432.99" x2="300" y2="346.39"/>
</g>
<g id="LINE_189_">
	<line class="st0" x1="75" y1="476.28" x2="37.5" y2="497.93"/>
</g>
<g id="LINE_190_">
	<line class="st0" x1="300" y1="173.19" x2="262.5" y2="194.84"/>
</g>
<g id="LINE_191_">
	<line class="st0" x1="75" y1="173.19" x2="0" y2="216.49"/>
</g>
<g id="LINE_192_">
	<line class="st0" x1="112.5" y1="108.25" x2="150" y2="129.9"/>
</g>
<g id="LINE_193_">
	<line class="st0" x1="150" y1="346.39" x2="150" y2="303.09"/>
</g>
<g id="LINE_194_">
	<line class="st0" x1="37.5" y1="108.25" x2="37.5" y2="64.95"/>
</g>
<g id="LINE_195_">
	<line class="st0" x1="75" y1="476.28" x2="112.5" y2="497.93"/>
</g>
<g id="LINE_196_">
	<line class="st0" x1="75" y1="303.09" x2="112.5" y2="324.74"/>
</g>
<g id="LINE_197_">
	<line class="st0" x1="225" y1="216.49" x2="187.5" y2="238.14"/>
</g>
<g id="LINE_198_">
	<line class="st0" x1="75" y1="303.09" x2="75" y2="259.79"/>
</g>
<g id="LINE_199_">
	<line class="st0" x1="112.5" y1="368.04" x2="112.5" y2="324.74"/>
</g>
<g id="LINE_200_">
	<line class="st0" x1="187.5" y1="281.44" x2="225" y2="303.09"/>
</g>
<g id="LINE_201_">
	<line class="st0" x1="225" y1="432.99" x2="262.5" y2="454.64"/>
</g>
<g id="LINE_202_">
	<line class="st0" x1="37.5" y1="368.04" x2="75" y2="389.69"/>
</g>
<g id="LINE_203_">
	<line class="st0" x1="75" y1="86.6" x2="75" y2="43.3"/>
</g>
<g id="LINE_204_">
	<line class="st0" x1="75" y1="346.39" x2="75" y2="303.09"/>
</g>
<g id="LINE_205_">
	<line class="st0" x1="262.5" y1="541.23" x2="225" y2="562.88"/>
</g>
<g id="LINE_206_">
	<line class="st0" x1="37.5" y1="281.44" x2="75" y2="303.09"/>
</g>
<g id="LINE_207_">
	<line class="st0" x1="150" y1="476.28" x2="112.5" y2="497.93"/>
</g>
<g id="LINE_208_">
	<line class="st0" x1="262.5" y1="324.74" x2="300" y2="346.39"/>
</g>
<g id="LINE_209_">
	<line class="st0" x1="187.5" y1="21.65" x2="225" y2="43.3"/>
</g>
<g id="LINE_210_">
	<line class="st0" x1="300" y1="346.39" x2="300" y2="303.09"/>
</g>
<g id="LINE_211_">
	<line class="st0" x1="0" y1="562.88" x2="37.5" y2="584.53"/>
</g>
<g id="LINE_212_">
	<line class="st0" x1="37.5" y1="151.55" x2="37.5" y2="108.25"/>
</g>
<g id="LINE_213_">
	<line class="st0" x1="150" y1="303.09" x2="225" y2="346.39"/>
</g>
<g id="LINE_214_">
	<line class="st0" x1="225" y1="173.19" x2="262.5" y2="194.84"/>
</g>
<g id="LINE_215_">
	<line class="st0" x1="187.5" y1="238.14" x2="225" y2="259.79"/>
</g>
<g id="LINE_216_">
	<line class="st0" x1="37.5" y1="368.04" x2="37.5" y2="324.74"/>
</g>
<g id="LINE_217_">
	<line class="st0" x1="187.5" y1="541.23" x2="187.5" y2="497.93"/>
</g>
<g id="LINE_218_">
	<line class="st0" x1="0" y1="432.99" x2="37.5" y2="454.64"/>
</g>
<g id="LINE_219_">
	<line class="st0" x1="112.5" y1="108.25" x2="112.5" y2="64.95"/>
</g>
<g id="LINE_220_">
	<line class="st0" x1="75" y1="0" x2="37.5" y2="21.65"/>
</g>
<g id="LINE_221_">
	<line class="st0" x1="187.5" y1="541.23" x2="225" y2="562.88"/>
</g>
<g id="LINE_222_">
	<line class="st0" x1="225" y1="562.88" x2="300" y2="606.18"/>
</g>
<g id="LINE_223_">
	<line class="st0" x1="75" y1="346.39" x2="112.5" y2="368.04"/>
</g>
<g id="LINE_224_">
	<line class="st0" x1="37.5" y1="541.23" x2="75" y2="562.88"/>
</g>
<g id="LINE_225_">
	<line class="st0" x1="0" y1="86.6" x2="37.5" y2="108.25"/>
</g>
<g id="LINE_226_">
	<line class="st0" x1="150" y1="303.09" x2="150" y2="216.49"/>
</g>
<g id="LINE_227_">
	<line class="st0" x1="112.5" y1="281.44" x2="112.5" y2="238.14"/>
</g>
<g id="LINE_228_">
	<line class="st0" x1="75" y1="43.3" x2="112.5" y2="64.95"/>
</g>
<g id="LINE_229_">
	<line class="st0" x1="37.5" y1="108.25" x2="0" y2="129.9"/>
</g>
<g id="LINE_230_">
	<line class="st0" x1="225" y1="562.88" x2="187.5" y2="584.53"/>
</g>
<g id="LINE_231_">
	<line class="st0" x1="187.5" y1="108.25" x2="150" y2="129.9"/>
</g>
<g id="LINE_232_">
	<line class="st0" x1="262.5" y1="411.34" x2="300" y2="432.99"/>
</g>
<g id="LINE_233_">
	<line class="st0" x1="150" y1="86.6" x2="187.5" y2="108.25"/>
</g>
<g id="LINE_234_">
	<line class="st0" x1="0" y1="346.39" x2="37.5" y2="368.04"/>
</g>
<g id="LINE_235_">
	<line class="st0" x1="37.5" y1="21.65" x2="0" y2="43.3"/>
</g>
<g id="LINE_236_">
	<line class="st0" x1="37.5" y1="541.23" x2="37.5" y2="497.93"/>
</g>
<g id="LINE_237_">
	<line class="st0" x1="300" y1="43.3" x2="300" y2="0"/>
</g>
<g id="LINE_238_">
	<line class="st0" x1="262.5" y1="411.34" x2="262.5" y2="324.74"/>
</g>
<g id="LINE_239_">
	<line class="st0" x1="262.5" y1="64.95" x2="300" y2="86.6"/>
</g>
<g id="LINE_240_">
	<line class="st0" x1="75" y1="216.49" x2="112.5" y2="238.14"/>
</g>
<g id="LINE_241_">
	<line class="st0" x1="37.5" y1="497.93" x2="37.5" y2="454.64"/>
</g>
<g id="LINE_242_">
	<line class="st0" x1="187.5" y1="411.34" x2="187.5" y2="368.04"/>
</g>
<g id="LINE_243_">
	<line class="st0" x1="225" y1="86.6" x2="225" y2="43.3"/>
</g>
<g id="LINE_244_">
	<line class="st0" x1="150" y1="476.28" x2="150" y2="432.99"/>
</g>
<g id="LINE_245_">
	<line class="st0" x1="262.5" y1="151.55" x2="300" y2="173.19"/>
</g>
<g id="LINE_246_">
	<line class="st0" x1="37.5" y1="281.44" x2="37.5" y2="238.14"/>
</g>
<g id="LINE_247_">
	<line class="st0" x1="112.5" y1="21.65" x2="112.5" y2="0"/>
</g>
<g id="LINE_248_">
	<line class="st0" x1="262.5" y1="324.74" x2="225" y2="346.39"/>
</g>
<g id="LINE_249_">
	<line class="st0" x1="37.5" y1="108.25" x2="75" y2="129.9"/>
</g>
<g id="LINE_250_">
	<line class="st0" x1="150" y1="476.28" x2="187.5" y2="497.93"/>
</g>
<g id="LINE_251_">
	<line class="st0" x1="150" y1="43.3" x2="187.5" y2="64.95"/>
</g>
<g id="LINE_252_">
	<line class="st0" x1="75" y1="173.19" x2="75" y2="129.9"/>
</g>
<g id="LINE_253_">
	<line class="st0" x1="150" y1="562.88" x2="187.5" y2="584.53"/>
</g>
<g id="LINE_254_">
	<line class="st0" x1="187.5" y1="281.44" x2="187.5" y2="238.14"/>
</g>
<g id="LINE_255_">
	<line class="st0" x1="225" y1="303.09" x2="225" y2="259.79"/>
</g>
<g id="LINE_256_">
	<line class="st0" x1="37.5" y1="541.23" x2="0" y2="562.88"/>
</g>
<g id="LINE_257_">
	<line class="st0" x1="262.5" y1="411.34" x2="225" y2="432.99"/>
</g>
<g id="LINE_258_">
	<line class="st0" x1="150" y1="173.19" x2="150" y2="129.9"/>
</g>
<g id="LINE_259_">
	<line class="st0" x1="225" y1="432.99" x2="225" y2="346.39"/>
</g>
<g id="LINE_260_">
	<line class="st0" x1="262.5" y1="541.23" x2="300" y2="562.88"/>
</g>
<g id="LINE_261_">
	<line class="st0" x1="187.5" y1="194.84" x2="150" y2="216.49"/>
</g>
<g id="LINE_262_">
	<line class="st0" x1="262.5" y1="238.14" x2="262.5" y2="194.84"/>
</g>
<g id="LINE_263_">
	<line class="st0" x1="187.5" y1="194.84" x2="187.5" y2="151.55"/>
</g>
<g id="LINE_264_">
	<line class="st0" x1="37.5" y1="238.14" x2="75" y2="259.79"/>
</g>
<g id="LINE_265_">
	<line class="st0" x1="262.5" y1="151.55" x2="225" y2="173.19"/>
</g>
<g id="LINE_266_">
	<line class="st0" x1="75" y1="216.49" x2="75" y2="173.19"/>
</g>
<g id="LINE_267_">
	<line class="st0" x1="187.5" y1="108.25" x2="187.5" y2="64.95"/>
</g>
<g id="LINE_268_">
	<line class="st0" x1="0" y1="43.3" x2="37.5" y2="64.95"/>
</g>
<g id="LINE_269_">
	<line class="st0" x1="150" y1="432.99" x2="187.5" y2="454.64"/>
</g>
<g id="LINE_270_">
	<line class="st0" x1="150" y1="346.39" x2="187.5" y2="368.04"/>
</g>
<g id="LINE_271_">
	<line class="st0" x1="225" y1="86.6" x2="262.5" y2="108.25"/>
</g>
<g id="LINE_272_">
	<line class="st0" x1="225" y1="216.49" x2="262.5" y2="238.14"/>
</g>
<g id="LINE_273_">
	<line class="st0" x1="112.5" y1="108.25" x2="75" y2="86.6"/>
</g>
<g id="LINE_274_">
	<line class="st0" x1="112.5" y1="281.44" x2="150" y2="303.09"/>
</g>
<g id="LINE_275_">
	<line class="st0" x1="75" y1="173.19" x2="150" y2="216.49"/>
</g>
<g id="LINE_276_">
	<line class="st0" x1="225" y1="216.49" x2="225" y2="173.19"/>
</g>
<g id="LINE_277_">
	<line class="st0" x1="75" y1="129.9" x2="150" y2="173.19"/>
</g>
<g id="LINE_278_">
	<line class="st0" x1="37.5" y1="151.55" x2="75" y2="173.19"/>
</g>
<g id="LINE_279_">
	<line class="st0" x1="300" y1="259.79" x2="300" y2="173.19"/>
</g>
<g id="LINE_280_">
	<line class="st0" x1="150" y1="86.6" x2="150" y2="43.3"/>
</g>
<g id="LINE_281_">
	<line class="st0" x1="37.5" y1="21.65" x2="37.5" y2="0"/>
</g>
<g id="LINE_282_">
	<line class="st0" x1="187.5" y1="21.65" x2="187.5" y2="0"/>
</g>
<g id="LINE_283_">
	<line class="st0" x1="412.5" y1="0" x2="412.5" y2="21.65"/>
</g>
<g id="LINE_284_">
	<line class="st0" x1="375" y1="0" x2="337.5" y2="21.65"/>
</g>
<g id="LINE_285_">
	<line class="st0" x1="225" y1="0" x2="262.5" y2="21.65"/>
</g>
<g id="LINE_286_">
	<line class="st0" x1="262.5" y1="64.95" x2="225" y2="86.6"/>
</g>
<g id="LINE_287_">
	<line class="st0" x1="375" y1="432.99" x2="337.5" y2="454.64"/>
</g>
<g id="LINE_288_">
	<line class="st0" x1="375" y1="389.69" x2="337.5" y2="411.34"/>
</g>
<g id="LINE_289_">
	<line class="st0" x1="337.5" y1="368.04" x2="375" y2="389.69"/>
</g>
<g id="LINE_290_">
	<line class="st0" x1="337.5" y1="411.34" x2="337.5" y2="368.04"/>
</g>
<g id="LINE_291_">
	<line class="st0" x1="337.5" y1="411.34" x2="375" y2="432.99"/>
</g>
<g id="LINE_292_">
	<line class="st0" x1="37.5" y1="281.44" x2="0" y2="303.09"/>
</g>
<g id="LINE_293_">
	<line class="st0" x1="37.5" y1="238.14" x2="0" y2="259.79"/>
</g>
<g id="LINE_294_">
	<line class="st0" x1="562.5" y1="281.44" x2="562.5" y2="238.14"/>
</g>
<g id="LINE_295_">
	<line class="st0" x1="600" y1="259.79" x2="562.5" y2="281.44"/>
</g>
</svg>
